<svg width="18" height="18" viewBox="0 0 18 18" fill="none" xmlns="http://www.w3.org/2000/svg">
<path d="M6 10.5C5.7875 10.5 5.6095 10.428 5.466 10.284C5.3225 10.14 5.2505 9.962 5.25 9.75C5.2495 9.538 5.3215 9.36 5.466 9.216C5.6105 9.072 5.7885 9 6 9C6.2115 9 6.38975 9.072 6.53475 9.216C6.67975 9.36 6.7515 9.538 6.75 9.75C6.7485 9.962 6.6765 10.1403 6.534 10.2847C6.3915 10.4292 6.2135 10.501 6 10.5ZM9 10.5C8.7875 10.5 8.6095 10.428 8.466 10.284C8.3225 10.14 8.2505 9.962 8.25 9.75C8.2495 9.538 8.3215 9.36 8.466 9.216C8.6105 9.072 8.7885 9 9 9C9.2115 9 9.38975 9.072 9.53475 9.216C9.67975 9.36 9.7515 9.538 9.75 9.75C9.7485 9.962 9.6765 10.1403 9.534 10.2847C9.3915 10.4292 9.2135 10.501 9 10.5ZM12 10.5C11.7875 10.5 11.6095 10.428 11.466 10.284C11.3225 10.14 11.2505 9.962 11.25 9.75C11.2495 9.538 11.3215 9.36 11.466 9.216C11.6105 9.072 11.7885 9 12 9C12.2115 9 12.3897 9.072 12.5347 9.216C12.6797 9.36 12.7515 9.538 12.75 9.75C12.7485 9.962 12.6765 10.1403 12.534 10.2847C12.3915 10.4292 12.2135 10.501 12 10.5ZM3.75 16.5C3.3375 16.5 2.9845 16.3533 2.691 16.0597C2.3975 15.7662 2.2505 15.413 2.25 15V4.5C2.25 4.0875 2.397 3.7345 2.691 3.441C2.985 3.1475 3.338 3.0005 3.75 3H4.5V1.5H6V3H12V1.5H13.5V3H14.25C14.6625 3 15.0157 3.147 15.3097 3.441C15.6038 3.735 15.7505 4.088 15.75 4.5V15C15.75 15.4125 15.6033 15.7657 15.3097 16.0597C15.0162 16.3538 14.663 16.5005 14.25 16.5H3.75ZM3.75 15H14.25V7.5H3.75V15ZM3.75 6H14.25V4.5H3.75V6Z" fill="#F29178"/>
</svg>
