<svg width="24" height="24" viewBox="0 0 24 24" fill="none" xmlns="http://www.w3.org/2000/svg">
<path d="M19.3889 5H4.61111C3.44518 5 2.5 6.04467 2.5 7.33333V16.6667C2.5 17.9553 3.44518 19 4.61111 19H19.3889C20.5548 19 21.5 17.9553 21.5 16.6667V7.33333C21.5 6.04467 20.5548 5 19.3889 5Z" stroke="#818587" stroke-width="1.5" stroke-linecap="round" stroke-linejoin="round"/>
<path d="M5.5 15.9998L9.44163 12.0667M9.44163 12.0667L9.5 12C10.5 12.0667 11 12 12.5 11C14.9259 9.3827 13.5 7.50011 12 7.99998C10.4821 8.50582 9.62775 10.7111 9.44163 12.0667Z" stroke="#818587" stroke-width="1.5" stroke-linecap="round"/>
<path d="M13.3047 16.0819L9.36306 12.1487M9.36306 12.1487L9.30469 12.082C8.30469 12.1487 7.80469 12.082 6.30469 11.082C3.87881 9.46473 5.30469 7.58215 6.80469 8.08201C8.32262 8.58786 9.17694 10.7932 9.36306 12.1487Z" stroke="#818587" stroke-width="1.5" stroke-linecap="round"/>
<path d="M3 12.5H21" stroke="#818587" stroke-width="1.5" stroke-linecap="round"/>
<path d="M15.5 16H16" stroke="#818587" stroke-width="1.5" stroke-linecap="round"/>
<path d="M18 16H19" stroke="#818587" stroke-width="1.5" stroke-linecap="round"/>
</svg>
