<svg width="28" height="28" viewBox="0 0 28 28" fill="none" xmlns="http://www.w3.org/2000/svg">
<path d="M6.5 13.9091V23M21.5 13L21.5 19C21.5 20.8856 21.5 21.8284 20.9142 22.4142C20.3284 23 19.3856 23 17.5 23H15C13.1144 23 12.1716 23 11.5858 22.4142C11 21.8284 11 20.8856 11 19L11 13H21.5Z" stroke="white" stroke-width="1.5" stroke-linecap="round"/>
<path d="M18.3839 5H9.61606C8.34674 5 7.71208 5 7.21333 5.32619C6.71458 5.65238 6.4602 6.23383 5.95143 7.39672L5.23773 9.02804C5.168 9.18742 5.13314 9.26711 5.10551 9.34876C5.05414 9.50058 5.0212 9.65803 5.00742 9.81772C5 9.90359 5 9.99058 5 10.1645C5 10.9422 5 11.3311 5.10668 11.6445C5.30665 12.232 5.76804 12.6933 6.35554 12.8933C6.66894 13 7.05778 13 7.83546 13H20.1645C20.9422 13 21.3311 13 21.6445 12.8933C22.232 12.6933 22.6933 12.232 22.8933 11.6445C23 11.3311 23 10.9422 23 10.1645C23 9.99058 23 9.90359 22.9926 9.81772C22.9788 9.65803 22.9459 9.50058 22.8945 9.34876C22.8669 9.26711 22.832 9.18742 22.7623 9.02804L22.0486 7.39673C21.5398 6.23383 21.2854 5.65238 20.7867 5.32619C20.2879 5 19.6533 5 18.3839 5Z" stroke="white" stroke-width="1.5" stroke-linecap="round" stroke-linejoin="round"/>
<path d="M14 13V10M9 13V10M19 13V10" stroke="white" stroke-width="1.5" stroke-linecap="round" stroke-linejoin="round"/>
</svg>
