<svg width="28" height="28" viewBox="0 0 28 28" fill="none" xmlns="http://www.w3.org/2000/svg">
<path d="M23.3337 24.5002V23.3335C23.3337 22.0448 22.289 21.0002 21.0003 21.0002H16.3337C15.045 21.0002 14.0003 22.0448 14.0003 23.3335V24.5002M23.3337 10.5002V8.16683C23.3337 6.87817 22.289 5.8335 21.0003 5.8335H7.00033C5.71166 5.8335 4.66699 6.87817 4.66699 8.16683V22.1668C4.66699 23.4555 5.71166 24.5002 7.00033 24.5002H9.33366M21.0003 15.1668C21.0003 16.4555 19.9557 17.5002 18.667 17.5002C17.3783 17.5002 16.3337 16.4555 16.3337 15.1668C16.3337 13.8782 17.3783 12.8335 18.667 12.8335C19.9557 12.8335 21.0003 13.8782 21.0003 15.1668Z" stroke="white" stroke-width="1.5" stroke-linecap="round" stroke-linejoin="round"/>
<path d="M7 9.3335H21" stroke="white" stroke-linecap="round"/>
<path d="M7 11.6665H14" stroke="white" stroke-linecap="round"/>
</svg>
