<svg width="25" height="24" viewBox="0 0 25 24" fill="none" xmlns="http://www.w3.org/2000/svg">
<path d="M16.5 15C17.6046 15 18.5 14.1046 18.5 13C18.5 11.8954 17.6046 11 16.5 11C15.3954 11 14.5 11.8954 14.5 13C14.5 14.1046 15.3954 15 16.5 15Z" fill="#F4F4F4"/>
<path d="M20.5 21V20C20.5 18.8954 19.6046 18 18.5 18H14.5C13.3954 18 12.5 18.8954 12.5 20V21M20.5 9V7C20.5 5.89543 19.6046 5 18.5 5H6.5C5.39543 5 4.5 5.89543 4.5 7V19C4.5 20.1046 5.39543 21 6.5 21H8.5M18.5 13C18.5 14.1046 17.6046 15 16.5 15C15.3954 15 14.5 14.1046 14.5 13C14.5 11.8954 15.3954 11 16.5 11C17.6046 11 18.5 11.8954 18.5 13Z" stroke="#818587" stroke-width="1.5" stroke-linecap="round" stroke-linejoin="round"/>
<path d="M6.5 8H18.5" stroke="#818587" stroke-linecap="round"/>
<path d="M6.5 10H12.5" stroke="#818587" stroke-linecap="round"/>
</svg>
