<svg width="41" height="40" viewBox="0 0 41 40" fill="none" xmlns="http://www.w3.org/2000/svg">
<circle cx="20.5" cy="20" r="19.5" stroke="#F29178"/>
<g clip-path="url(#clip0_422_2742)">
<g clip-path="url(#clip1_422_2742)">
<path d="M31.5 22.9531C31.5078 22.9688 31.5117 23.082 31.5117 23.293C31.5117 23.5039 31.5156 23.7734 31.5234 24.1016C31.5312 24.4297 31.5312 24.8086 31.5234 25.2383C31.5156 25.668 31.5156 26.1016 31.5234 26.5391C31.5312 26.9766 31.5273 27.4219 31.5117 27.875C31.4961 28.3281 31.4961 28.7266 31.5117 29.0703C31.5273 29.4141 31.5234 29.7227 31.5 29.9961C31.4766 30.2695 31.4766 30.4375 31.5 30.5H9V29.082C9 28.7148 8.99609 28.3125 8.98828 27.875C8.98047 27.4375 8.98047 26.9961 8.98828 26.5508C8.99609 26.1055 8.99219 25.668 8.97656 25.2383C8.96094 24.8086 8.96094 24.4336 8.97656 24.1133C8.99219 23.793 8.99219 23.5195 8.97656 23.293C8.96094 23.0664 8.96875 22.9531 9 22.9531L13.4883 9.5H18V11H14.5664L10.5703 23H15.4688L16.9688 26H23.5312L25.0312 23H29.9297L25.9336 11H22.5V9.5H27.0117L31.5 22.9531ZM30 24.5H25.9688L24.4688 27.5H16.0312L14.5312 24.5H10.5V29H30V24.5ZM19.5 18.9336V8H21V18.9336L24.4453 15.5L25.5 16.5547L20.25 21.8047L15 16.5547L16.0547 15.5L19.5 18.9336Z" fill="#F29178"/>
</g>
</g>
<defs>
<clipPath id="clip0_422_2742">
<rect width="24" height="24" fill="white" transform="translate(9 8)"/>
</clipPath>
<clipPath id="clip1_422_2742">
<rect width="24" height="24" fill="white" transform="translate(9 8)"/>
</clipPath>
</defs>
</svg>
