<svg width="41" height="40" viewBox="0 0 41 40" fill="none" xmlns="http://www.w3.org/2000/svg">
<circle cx="20.5" cy="20" r="19.5" stroke="#F29178"/>
<g clip-path="url(#clip0_422_2787)">
<g clip-path="url(#clip1_422_2787)">
<path fill-rule="evenodd" clip-rule="evenodd" d="M13.9997 17C13.9997 15.1435 14.7372 13.363 16.0499 12.0503C17.3627 10.7375 19.1432 10 20.9997 10C22.8562 10 24.6367 10.7375 25.9494 12.0503C27.2622 13.363 27.9997 15.1435 27.9997 17V20.764L29.8217 24.408C29.9056 24.5757 29.9452 24.7621 29.9367 24.9494C29.9283 25.1368 29.8721 25.3188 29.7735 25.4783C29.6749 25.6379 29.5372 25.7695 29.3734 25.8608C29.2096 25.9521 29.0252 26 28.8377 26H24.8737C24.6512 26.8582 24.1501 27.6183 23.4489 28.1609C22.7478 28.7035 21.8863 28.9979 20.9997 28.9979C20.1131 28.9979 19.2516 28.7035 18.5504 28.1609C17.8493 27.6183 17.3481 26.8582 17.1257 26H13.1617C12.9742 26 12.7897 25.9521 12.626 25.8608C12.4622 25.7695 12.3244 25.6379 12.2258 25.4783C12.1272 25.3188 12.0711 25.1368 12.0626 24.9494C12.0542 24.7621 12.0938 24.5757 12.1777 24.408L13.9997 20.764V17ZM19.2677 26C19.4432 26.304 19.6957 26.5565 19.9997 26.732C20.3038 26.9075 20.6486 26.9999 20.9997 26.9999C21.3507 26.9999 21.6956 26.9075 21.9996 26.732C22.3037 26.5565 22.5561 26.304 22.7317 26H19.2677ZM20.9997 12C19.6736 12 18.4018 12.5268 17.4642 13.4645C16.5265 14.4021 15.9997 15.6739 15.9997 17V20.764C15.9997 21.0743 15.9274 21.3804 15.7887 21.658L14.6187 24H27.3817L26.2117 21.658C26.0726 21.3805 26.0001 21.0744 25.9997 20.764V17C25.9997 15.6739 25.4729 14.4021 24.5352 13.4645C23.5975 12.5268 22.3258 12 20.9997 12Z" fill="#F29178"/>
</g>
</g>
<defs>
<clipPath id="clip0_422_2787">
<rect width="24" height="24" fill="white" transform="translate(9 8)"/>
</clipPath>
<clipPath id="clip1_422_2787">
<rect width="24" height="24" fill="white" transform="translate(9 8)"/>
</clipPath>
</defs>
</svg>
