<svg width="40" height="40" viewBox="0 0 40 40" fill="none" xmlns="http://www.w3.org/2000/svg">
<rect width="40" height="40" rx="20" fill="#F29178" fill-opacity="0.26"/>
<path d="M11 20C11 18.1144 11 17.1716 11.5858 16.5858C12.1716 16 13.1144 16 15 16H25C26.8856 16 27.8284 16 28.4142 16.5858C29 17.1716 29 18.1144 29 20V24C29 25.8856 29 26.8284 28.4142 27.4142C27.8284 28 26.8856 28 25 28H15C13.1144 28 12.1716 28 11.5858 27.4142C11 26.8284 11 25.8856 11 24V20Z" stroke="#F29178" stroke-width="1.5"/>
<path d="M26 16L25.539 14.9243C25.0351 13.7485 24.7831 13.1606 24.2822 12.8303C23.7812 12.5 23.1416 12.5 21.8624 12.5H15C13.1144 12.5 12.1716 12.5 11.5858 13.0858C11 13.6716 11 14.6144 11 16.5V23" stroke="#F29178" stroke-width="1.5"/>
<rect x="24.5" y="19" width="2" height="2" rx="1" fill="#F29178"/>
</svg>
