<svg width="41" height="40" viewBox="0 0 41 40" fill="none" xmlns="http://www.w3.org/2000/svg">
<circle cx="20.5" cy="20" r="19.5" stroke="#F29178"/>
<path d="M30 12.5H12C11.6022 12.5 11.2206 12.658 10.9393 12.9393C10.658 13.2206 10.5 13.6022 10.5 14V26C10.5 26.3978 10.658 26.7794 10.9393 27.0607C11.2206 27.342 11.6022 27.5 12 27.5H30C30.3978 27.5 30.7794 27.342 31.0607 27.0607C31.342 26.7794 31.5 26.3978 31.5 26V14C31.5 13.6022 31.342 13.2206 31.0607 12.9393C30.7794 12.658 30.3978 12.5 30 12.5ZM30 14V16.25H12V14H30ZM12 26V17.75H30V26H12Z" fill="#F29178"/>
<path d="M13.5 23H21V24.5H13.5V23Z" fill="#F29178"/>
</svg>
