<svg width="41" height="40" viewBox="0 0 41 40" fill="none" xmlns="http://www.w3.org/2000/svg">
<circle cx="20.5" cy="20" r="19.5" stroke="#F29178"/>
<path d="M21.4126 19.3286C20.1303 18.3806 18.2086 16.7229 12.6989 16.7229V28.5926C18.2086 28.5926 20.1303 30.2503 21.4126 31.1983M21.4126 19.3286V31.1983M21.4126 19.3286C22.6949 18.3806 24.6166 16.7229 30.1263 16.7229V28.5926C24.6166 28.5926 22.6949 30.2503 21.4126 31.1983M24.8171 9.09257V13.2617M27.8634 9H16.4171C16.0974 8.99961 15.7838 9.08868 15.512 9.25714L12.5 11.1326L15.512 13.0046C15.7838 13.173 16.0974 13.2621 16.4171 13.2617H27.8634C28.1482 13.2698 28.4318 13.2207 28.6972 13.1173C28.9627 13.0139 29.2048 12.8583 29.4091 12.6597C29.6134 12.4611 29.7758 12.2235 29.8867 11.9611C29.9976 11.6987 30.0547 11.4166 30.0547 11.1317C30.0547 10.8468 29.9976 10.5648 29.8867 10.3023C29.7758 10.0399 29.6134 9.80234 29.4091 9.60375C29.2048 9.40517 28.9627 9.24957 28.6972 9.14616C28.4318 9.04275 28.1482 8.99192 27.8634 9Z" stroke="#F29178" stroke-width="1.6" stroke-linecap="round" stroke-linejoin="round"/>
</svg>
