<svg width="40" height="40" viewBox="0 0 40 40" fill="none" xmlns="http://www.w3.org/2000/svg">
<rect width="40" height="40" rx="20" fill="#F29178" fill-opacity="0.26"/>
<path d="M24 23C25.1046 23 26 22.1046 26 21C26 19.8954 25.1046 19 24 19C22.8954 19 22 19.8954 22 21C22 22.1046 22.8954 23 24 23Z" fill="#F4F4F4"/>
<path d="M28 29V28C28 26.8954 27.1046 26 26 26H22C20.8954 26 20 26.8954 20 28V29M28 17V15C28 13.8954 27.1046 13 26 13H14C12.8954 13 12 13.8954 12 15V27C12 28.1046 12.8954 29 14 29H16M26 21C26 22.1046 25.1046 23 24 23C22.8954 23 22 22.1046 22 21C22 19.8954 22.8954 19 24 19C25.1046 19 26 19.8954 26 21Z" stroke="#F29178" stroke-width="1.5" stroke-linecap="round" stroke-linejoin="round"/>
<path d="M14 16H26" stroke="#F29178" stroke-linecap="round"/>
<path d="M14 18H20" stroke="#F29178" stroke-linecap="round"/>
</svg>
