<svg width="41" height="40" viewBox="0 0 41 40" fill="none" xmlns="http://www.w3.org/2000/svg">
<circle cx="20.5" cy="20" r="19.5" stroke="#F29178"/>
<path d="M25 20H29M27 22V18M13 26V25C13 24.2044 13.3161 23.4413 13.8787 22.8787C14.4413 22.3161 15.2044 22 16 22H20C20.7956 22 21.5587 22.3161 22.1213 22.8787C22.6839 23.4413 23 24.2044 23 25V26C23 26.2652 22.8946 26.5196 22.7071 26.7071C22.5196 26.8946 22.2652 27 22 27H14C13.7348 27 13.4804 26.8946 13.2929 26.7071C13.1054 26.5196 13 26.2652 13 26ZM21 16C21 16.7956 20.6839 17.5587 20.1213 18.1213C19.5587 18.6839 18.7956 19 18 19C17.2044 19 16.4413 18.6839 15.8787 18.1213C15.3161 17.5587 15 16.7956 15 16C15 15.2044 15.3161 14.4413 15.8787 13.8787C16.4413 13.3161 17.2044 13 18 13C18.7956 13 19.5587 13.3161 20.1213 13.8787C20.6839 14.4413 21 15.2044 21 16Z" stroke="#F29178" stroke-width="2" stroke-linecap="round" stroke-linejoin="round"/>
</svg>
