<svg width="40" height="40" viewBox="0 0 40 40" fill="none" xmlns="http://www.w3.org/2000/svg">
<rect width="40" height="40" rx="20" fill="#F29178" fill-opacity="0.26"/>
<path opacity="0.15" d="M12 15H28V26C28 27.1046 27.1046 28 26 28H14C12.8954 28 12 27.1046 12 26V15Z" fill="#F29178"/>
<path d="M23 19C23 20.6569 21.6569 22 20 22C18.3431 22 17 20.6569 17 19M28 15L26 11H14L12 15M28 15H12M28 15V26C28 27.1046 27.1046 28 26 28H14C12.8954 28 12 27.1046 12 26V15" stroke="#F29178" stroke-width="1.5" stroke-linecap="round" stroke-linejoin="round"/>
</svg>
