<svg width="41" height="40" viewBox="0 0 41 40" fill="none" xmlns="http://www.w3.org/2000/svg">
<circle cx="20.5" cy="20" r="19.5" stroke="#F29178"/>
<g clip-path="url(#clip0_422_2695)">
<path d="M10 28V25.2C10 24.6334 10.146 24.1127 10.438 23.638C10.73 23.1634 11.1173 22.8007 11.6 22.55C12.6333 22.0334 13.6833 21.646 14.75 21.388C15.8167 21.13 16.9 21.0007 18 21C19.1 20.9994 20.1833 21.1287 21.25 21.388C22.3167 21.6474 23.3667 22.0347 24.4 22.55C24.8833 22.8 25.271 23.1627 25.563 23.638C25.855 24.1134 26.0007 24.634 26 25.2V28H10ZM28 28V25C28 24.2667 27.796 23.5624 27.388 22.887C26.98 22.2117 26.4007 21.6327 25.65 21.15C26.5 21.25 27.3 21.421 28.05 21.663C28.8 21.905 29.5 22.2007 30.15 22.55C30.75 22.8834 31.2083 23.254 31.525 23.662C31.8417 24.07 32 24.516 32 25V28H28ZM18 20C16.9 20 15.9583 19.6084 15.175 18.825C14.3917 18.0417 14 17.1 14 16C14 14.9 14.3917 13.9584 15.175 13.175C15.9583 12.3917 16.9 12 18 12C19.1 12 20.0417 12.3917 20.825 13.175C21.6083 13.9584 22 14.9 22 16C22 17.1 21.6083 18.0417 20.825 18.825C20.0417 19.6084 19.1 20 18 20ZM28 16C28 17.1 27.6083 18.0417 26.825 18.825C26.0417 19.6084 25.1 20 24 20C23.8167 20 23.5833 19.9794 23.3 19.938C23.0167 19.8967 22.7833 19.8507 22.6 19.8C23.05 19.2667 23.396 18.675 23.638 18.025C23.88 17.375 24.0007 16.7 24 16C23.9993 15.3 23.8787 14.625 23.638 13.975C23.3973 13.325 23.0513 12.7334 22.6 12.2C22.8333 12.1167 23.0667 12.0624 23.3 12.037C23.5333 12.0117 23.7667 11.9994 24 12C25.1 12 26.0417 12.3917 26.825 13.175C27.6083 13.9584 28 14.9 28 16ZM12 26H24V25.2C24 25.0167 23.9543 24.85 23.863 24.7C23.7717 24.55 23.6507 24.4334 23.5 24.35C22.6 23.9 21.6917 23.5627 20.775 23.338C19.8583 23.1134 18.9333 23.0007 18 23C17.0667 22.9994 16.1417 23.112 15.225 23.338C14.3083 23.564 13.4 23.9014 12.5 24.35C12.35 24.4334 12.229 24.55 12.137 24.7C12.045 24.85 11.9993 25.0167 12 25.2V26ZM18 18C18.55 18 19.021 17.8044 19.413 17.413C19.805 17.0217 20.0007 16.5507 20 16C19.9993 15.4494 19.8037 14.9787 19.413 14.588C19.0223 14.1974 18.5513 14.0014 18 14C17.4487 13.9987 16.978 14.1947 16.588 14.588C16.198 14.9814 16.002 15.452 16 16C15.998 16.548 16.194 17.019 16.588 17.413C16.982 17.807 17.4527 18.0027 18 18Z" fill="#F29178"/>
</g>
<defs>
<clipPath id="clip0_422_2695">
<rect width="24" height="24" fill="white" transform="translate(9 8)"/>
</clipPath>
</defs>
</svg>
