<svg width="40" height="40" viewBox="0 0 40 40" fill="none" xmlns="http://www.w3.org/2000/svg">
<rect width="40" height="40" rx="20" fill="#F29178" fill-opacity="0.26"/>
<path fill-rule="evenodd" clip-rule="evenodd" d="M22.75 12C20.6789 12 19 13.6789 19 15.75C19 17.8211 20.6789 19.5 22.75 19.5C24.8211 19.5 26.5 17.8211 26.5 15.75C26.5 13.6789 24.8211 12 22.75 12ZM20.5 15.75C20.5 14.5074 21.5074 13.5 22.75 13.5C23.9926 13.5 25 14.5074 25 15.75C25 16.9926 23.9926 18 22.75 18C21.5074 18 20.5 16.9926 20.5 15.75Z" fill="#F29178"/>
<path fill-rule="evenodd" clip-rule="evenodd" d="M19.75 21C17.6789 21 16 22.6789 16 24.75C16 26.8211 17.6789 28.5 19.75 28.5H25.75C27.8211 28.5 29.5 26.8211 29.5 24.75C29.5 22.6789 27.8211 21 25.75 21H19.75ZM17.5 24.75C17.5 23.5074 18.5074 22.5 19.75 22.5H25.75C26.9926 22.5 28 23.5074 28 24.75C28 25.9926 26.9926 27 25.75 27H19.75C18.5074 27 17.5 25.9926 17.5 24.75Z" fill="#F29178"/>
<path d="M18.5021 18.3887C18.3444 18.1353 18.0485 18 17.75 18C16.5074 18 15.5 16.9926 15.5 15.75C15.5 14.5074 16.5074 13.5 17.75 13.5C18.0485 13.5 18.3444 13.3647 18.5021 13.1113C18.5091 13.1001 18.5161 13.089 18.5232 13.0778C18.7858 12.6633 18.6527 12.0764 18.165 12.0227C18.0287 12.0077 17.8903 12 17.75 12C15.6789 12 14 13.6789 14 15.75C14 17.8211 15.6789 19.5 17.75 19.5C17.8903 19.5 18.0287 19.4923 18.165 19.4773C18.6527 19.4236 18.7858 18.8367 18.5232 18.4222C18.5161 18.411 18.5091 18.3999 18.5021 18.3887Z" fill="#F29178"/>
<path d="M15.4583 26.3169C15.3448 26.1275 15.1444 26 14.9236 26H14.75C13.5074 26 12.5 24.9926 12.5 23.75C12.5 22.5074 13.5074 21.5 14.75 21.5H14.9236C15.1444 21.5 15.3448 21.3725 15.4583 21.1831C15.7354 20.7208 15.4347 20 14.8957 20H14.75C12.6789 20 11 21.6789 11 23.75C11 25.8211 12.6789 27.5 14.75 27.5H14.8957C15.4347 27.5 15.7354 26.7792 15.4583 26.3169Z" fill="#F29178"/>
</svg>
