<svg width="21" height="20" viewBox="0 0 21 20" fill="none" xmlns="http://www.w3.org/2000/svg">
<path d="M11.9287 8.27817L12.5026 9.09481L13.3854 8.45474V13.0897H14.3345V6.99805H13.5399L11.9287 8.27817Z" fill="#1E88E5"/>
<path d="M10.4058 9.86701C10.7589 9.55802 10.9796 9.09452 10.9796 8.60895C10.9796 7.63782 10.1189 6.84326 9.08152 6.84326C8.19868 6.84326 7.42618 7.39504 7.22754 8.21167L8.15453 8.45446C8.24282 8.07925 8.6401 7.81439 9.08152 7.81439C9.61123 7.81439 10.0306 8.16753 10.0306 8.60895C10.0306 9.05038 9.61123 9.40352 9.08152 9.40352H8.52974V10.3746H9.08152C9.67744 10.3746 10.1851 10.794 10.1851 11.2796C10.1851 11.7872 9.69951 12.1845 9.10359 12.1845C8.57388 12.1845 8.11039 11.8534 8.04418 11.3899L7.11719 11.5444C7.27169 12.4493 8.13246 13.1335 9.12566 13.1335C10.2513 13.1335 11.1562 12.2948 11.1562 11.2575C11.1341 10.7057 10.8472 10.1981 10.4058 9.86701Z" fill="#1E88E5"/>
<path d="M16.5638 19.9983H5.43994V15.562H16.5638V19.9983Z" fill="#FBC02D"/>
<path d="M21.0003 15.5614V4.4375H16.564V15.5614H21.0003Z" fill="#4CAF50"/>
<path d="M16.5637 4.43777V0.00146484H2.65885C1.73187 0.00146484 0.981445 0.751884 0.981445 1.67887V15.5837H5.41775V4.43777H16.5637Z" fill="#1E88E5"/>
<path d="M16.564 15.562V19.9991L21.0011 15.562H16.564Z" fill="#E53935"/>
<path d="M19.3454 0.00146484H16.564V4.43857H21.0011V1.6571C21.0011 0.729946 20.2726 0.00146484 19.3454 0.00146484Z" fill="#1565C0"/>
<path d="M2.65906 19.9991H5.44053V15.562H1.00342V18.3435C1.00342 19.2706 1.7319 19.9991 2.65906 19.9991Z" fill="#1565C0"/>
</svg>
