<svg width="24" height="24" viewBox="0 0 24 24" fill="none" xmlns="http://www.w3.org/2000/svg">
<mask id="mask0_2083_7093" style="mask-type:alpha" maskUnits="userSpaceOnUse" x="0" y="0" width="24" height="24">
<rect width="24" height="24" fill="#D9D9D9"/>
</mask>
<g mask="url(#mask0_2083_7093)">
<path d="M12.0017 21.5C10.6877 21.5 9.4545 21.2519 8.302 20.7558C7.14933 20.2596 6.14425 19.5846 5.28675 18.7307C4.42942 17.8771 3.75058 16.8732 3.25025 15.719C2.75008 14.5648 2.5 13.3316 2.5 12.0192H4C4 13.1193 4.20992 14.1552 4.62975 15.127C5.04958 16.0987 5.622 16.947 6.347 17.672C7.072 18.397 7.921 18.9704 8.894 19.3923C9.867 19.8141 10.9023 20.025 12 20.025C14.2333 20.025 16.125 19.25 17.675 17.7C19.225 16.15 20 14.2583 20 12.025C20 9.79167 19.225 7.9 17.675 6.35C16.125 4.8 14.2333 4.025 12 4.025C10.4462 4.025 9.04583 4.41958 7.799 5.20875C6.55217 5.99775 5.59483 7.03717 4.927 8.327H7.827V9.827H2.5V4.5H4V6.9905C4.8205 5.63917 5.93042 4.55292 7.32975 3.73175C8.72908 2.91058 10.2858 2.5 12 2.5C13.3142 2.5 14.5492 2.74933 15.705 3.248C16.8608 3.74667 17.8663 4.42342 18.7213 5.27825C19.5763 6.13308 20.2531 7.13833 20.7518 8.294C21.2506 9.44967 21.5 10.6844 21.5 11.9983C21.5 13.3123 21.2507 14.5473 20.752 15.7035C20.2533 16.8597 19.5766 17.8653 18.7218 18.7205C17.8669 19.5757 16.8617 20.2528 15.706 20.7518C14.5503 21.2506 13.3156 21.5 12.0017 21.5ZM10 15.8845C9.733 15.8845 9.50917 15.7942 9.3285 15.6137C9.148 15.4331 9.05775 15.2093 9.05775 14.9423V11.9423C9.05775 11.6753 9.15358 11.4515 9.34525 11.271C9.53692 11.0903 9.77442 11 10.0578 11V9.94225C10.0578 9.40808 10.2479 8.95083 10.6283 8.5705C11.0086 8.19017 11.4658 8 12 8C12.5342 8 12.9914 8.19017 13.3717 8.5705C13.7521 8.95083 13.9423 9.40808 13.9423 9.94225V11C14.2256 11 14.4631 11.0903 14.6547 11.271C14.8464 11.4515 14.9423 11.6753 14.9423 11.9423V14.9423C14.9423 15.2093 14.852 15.4331 14.6715 15.6137C14.4908 15.7942 14.267 15.8845 14 15.8845H10ZM10.9423 11H13.0577V9.946C13.0577 9.64733 12.9555 9.39575 12.751 9.19125C12.5465 8.98675 12.2962 8.8845 12 8.8845C11.7038 8.8845 11.4535 8.98675 11.249 9.19125C11.0445 9.39575 10.9423 9.64733 10.9423 9.946V11Z" fill="#1C1B1F"/>
</g>
</svg>
