<svg width="24" height="24" viewBox="0 0 24 24" fill="none" xmlns="http://www.w3.org/2000/svg">
<path d="M5.615 20C5.155 20 4.771 19.846 4.463 19.538C4.155 19.23 4.00067 18.8457 4 18.385V5.615C4 5.155 4.15433 4.771 4.463 4.463C4.77167 4.155 5.15567 4.00067 5.615 4H11.519C11.6617 4 11.7807 4.04767 11.876 4.143C11.9713 4.23833 12.019 4.35733 12.019 4.5C12.019 4.64267 11.9713 4.76167 11.876 4.857C11.7807 4.95233 11.6617 5 11.519 5H5.615C5.46167 5 5.32067 5.064 5.192 5.192C5.06333 5.32 4.99933 5.461 5 5.615V18.385C5 18.5383 5.064 18.6793 5.192 18.808C5.32 18.9367 5.461 19.0007 5.615 19H11.519C11.6617 19 11.7807 19.0477 11.876 19.143C11.9713 19.2383 12.019 19.3573 12.019 19.5C12.019 19.6427 11.9713 19.7617 11.876 19.857C11.7807 19.9523 11.6617 20 11.519 20H5.615ZM18.06 12.5H9.692C9.55 12.5 9.43133 12.4523 9.336 12.357C9.24067 12.2617 9.19267 12.1427 9.192 12C9.19133 11.8573 9.23933 11.7383 9.336 11.643C9.43267 11.5477 9.55133 11.5 9.692 11.5H18.06L16.088 9.529C15.9947 9.43567 15.9447 9.32267 15.938 9.19C15.9313 9.05733 15.9813 8.93633 16.088 8.827C16.1947 8.71767 16.3127 8.66167 16.442 8.659C16.5713 8.65633 16.6913 8.71033 16.802 8.821L19.415 11.435C19.577 11.5963 19.658 11.7847 19.658 12C19.658 12.2153 19.577 12.4037 19.415 12.565L16.802 15.179C16.7047 15.2763 16.589 15.3273 16.455 15.332C16.321 15.3367 16.1987 15.2837 16.088 15.173C15.9813 15.063 15.9293 14.944 15.932 14.816C15.9347 14.688 15.9887 14.5713 16.094 14.466L18.06 12.5Z" fill="#202020"/>
</svg>
