<svg width="20" height="16" viewBox="0 0 20 16" fill="none" xmlns="http://www.w3.org/2000/svg">
<path d="M14.2004 11.6C14.0413 11.6 13.8886 11.6633 13.7761 11.7758C13.6636 11.8883 13.6004 12.0409 13.6004 12.2C13.6004 12.3592 13.6636 12.5118 13.7761 12.6243C13.8886 12.7368 14.0413 12.8 14.2004 12.8H16.6004C16.7595 12.8 16.9121 12.7368 17.0247 12.6243C17.1372 12.5118 17.2004 12.3592 17.2004 12.2C17.2004 12.0409 17.1372 11.8883 17.0247 11.7758C16.9121 11.6633 16.7595 11.6 16.6004 11.6H14.2004ZM0.400391 4.10005C0.400391 3.22483 0.748068 2.38547 1.36694 1.7666C1.98581 1.14773 2.82518 0.800049 3.70039 0.800049H16.3004C17.1756 0.800049 18.015 1.14773 18.6338 1.7666C19.2527 2.38547 19.6004 3.22483 19.6004 4.10005V11.9C19.6004 12.7753 19.2527 13.6146 18.6338 14.2335C18.015 14.8524 17.1756 15.2 16.3004 15.2H3.70039C2.82518 15.2 1.98581 14.8524 1.36694 14.2335C0.748068 13.6146 0.400391 12.7753 0.400391 11.9V4.10005ZM3.70039 2.00005C3.14344 2.00005 2.60929 2.2213 2.21547 2.61512C1.82164 3.00895 1.60039 3.54309 1.60039 4.10005V5.60005H18.4004V4.10005C18.4004 3.54309 18.1791 3.00895 17.7853 2.61512C17.3915 2.2213 16.8573 2.00005 16.3004 2.00005H3.70039ZM18.4004 6.80005H1.60039V11.9C1.60039 13.0592 2.54119 14 3.70039 14H16.3004C16.8573 14 17.3915 13.7788 17.7853 13.385C18.1791 12.9911 18.4004 12.457 18.4004 11.9V6.80005Z" fill="#202020"/>
</svg>
