<svg width="19" height="24" viewBox="0 0 19 24" fill="none" xmlns="http://www.w3.org/2000/svg">
<path d="M9.41257 11.3286C8.13029 10.3806 6.20857 8.72286 0.698857 8.72286V20.5926C6.20857 20.5926 8.13029 22.2503 9.41257 23.1983M9.41257 11.3286V23.1983M9.41257 11.3286C10.6949 10.3806 12.6166 8.72286 18.1263 8.72286V20.5926C12.6166 20.5926 10.6949 22.2503 9.41257 23.1983M12.8171 1.09257V5.26172M15.8634 1H4.41714C4.09735 0.999612 3.78382 1.08868 3.512 1.25714L0.5 3.13257L3.512 5.00457C3.78382 5.17303 4.09735 5.2621 4.41714 5.26172H15.8634C16.1482 5.2698 16.4318 5.22068 16.6972 5.11727C16.9627 5.01386 17.2048 4.85826 17.4091 4.65968C17.6134 4.46109 17.7758 4.22355 17.8867 3.9611C17.9976 3.69865 18.0547 3.41663 18.0547 3.13172C18.0547 2.8468 17.9976 2.56478 17.8867 2.30233C17.7758 2.03989 17.6134 1.80234 17.4091 1.60375C17.2048 1.40517 16.9627 1.24957 16.6972 1.14616C16.4318 1.04275 16.1482 0.991921 15.8634 1Z" stroke="#202020" stroke-linecap="round" stroke-linejoin="round"/>
</svg>
